<svg width="32" height="32" viewBox="0 0 32 32" fill="none" xmlns="http://www.w3.org/2000/svg">
<path d="M1 9.78677L9.78677 1H22.2132L31 9.78677V32H32V9.37256L22.6274 0H9.37256L0 9.37256V32H1V9.78677Z" fill="#fff"/>
<path d="M21.6367 25H10.9492V23.9219L16.7969 17.2891C17.7656 16.1719 18.4375 15.25 18.8125 14.5234C19.1875 13.7969 19.375 13.0898 19.375 12.4023C19.375 11.3242 19.0586 10.4727 18.4258 9.84766C17.793 9.21484 16.9219 8.89844 15.8125 8.89844C14.6641 8.89844 13.7344 9.26562 13.0234 10C12.3203 10.7344 11.9688 11.6875 11.9688 12.8594H10.5742C10.5742 11.8984 10.7891 11.0234 11.2188 10.2344C11.6562 9.44531 12.2734 8.82812 13.0703 8.38281C13.875 7.92969 14.7891 7.70312 15.8125 7.70312C17.375 7.70312 18.5938 8.11328 19.4688 8.93359C20.3516 9.75391 20.793 10.8711 20.793 12.2852C20.793 13.082 20.543 13.9531 20.043 14.8984C19.5508 15.8438 18.6797 17.0234 17.4297 18.4375L12.6719 23.8164H21.6367V25Z" fill="#fff"/>
</svg>
